{
  "accessors": [
    {
      "bufferView": 2,
      "componentType": 5126,
      "count": 36,
      "max": [
        0.12990383803844452,
        0.8500000238418579,
        0.15000003576278687
      ],
      "min": [
        -0.12990383803844452,
        -0.8500000238418579,
        -0.15000003576278687
      ],
      "type": "VEC3"
    },
    {
      "bufferView": 2,
      "byteOffset": 432,
      "componentType": 5126,
      "count": 36,
      "max": [
        1.0,
        1.0,
        0.866019070148468
      ],
      "min": [
        -1.0,
        -1.0,
        -0.866019070148468
      ],
      "type": "VEC3"
    },
    {
      "bufferView": 1,
      "componentType": 5126,
      "count": 36,
      "max": [
        1.0,
        0.9900000095367432
      ],
      "min": [
        -8.940696716308594e-08,
        0.0
      ],
      "type": "VEC2"
    },
    {
      "bufferView": 0,
      "componentType": 5125,
      "count": 60,
      "type": "SCALAR"
    },
    {
      "bufferView": 2,
      "byteOffset": 864,
      "componentType": 5126,
      "count": 30,
      "max": [
        0.37122705578804016,
        1.2528066635131836,
        0.2787442207336426
      ],
      "min": [
        0.358236700296402,
        1.2242999076843262,
        0.2637442350387573
      ],
      "type": "VEC3"
    },
    {
      "bufferView": 2,
      "byteOffset": 1224,
      "componentType": 5126,
      "count": 30,
      "max": [
        1.0,
        1.0,
        0.866019070148468
      ],
      "min": [
        -1.0,
        0.0,
        -0.866019070148468
      ],
      "type": "VEC3"
    },
    {
      "bufferView": 1,
      "byteOffset": 288,
      "componentType": 5126,
      "count": 30,
      "max": [
        1.0,
        0.9900000095367432
      ],
      "min": [
        -8.940696716308594e-08,
        0.0
      ],
      "type": "VEC2"
    },
    {
      "bufferView": 0,
      "byteOffset": 240,
      "componentType": 5125,
      "count": 48,
      "type": "SCALAR"
    },
    {
      "bufferView": 2,
      "byteOffset": 1584,
      "componentType": 5126,
      "count": 30,
      "max": [
        -0.24051375687122345,
        1.2532821893692017,
        0.38976866006851196
      ],
      "min": [
        -0.2560681700706482,
        1.22382390499115,
        0.37415236234664917
      ],
      "type": "VEC3"
    },
    {
      "bufferView": 2,
      "byteOffset": 1944,
      "componentType": 5126,
      "count": 30,
      "max": [
        0.912819504737854,
        0.997420072555542,
        0.9921773076057434
      ],
      "min": [
        -0.912819504737854,
        -0.0700984001159668,
        -0.9921773076057434
      ],
      "type": "VEC3"
    },
    {
      "bufferView": 1,
      "byteOffset": 528,
      "componentType": 5126,
      "count": 30,
      "max": [
        1.0,
        0.9900000095367432
      ],
      "min": [
        -8.940696716308594e-08,
        0.0
      ],
      "type": "VEC2"
    },
    {
      "bufferView": 0,
      "byteOffset": 432,
      "componentType": 5125,
      "count": 48,
      "type": "SCALAR"
    },
    {
      "bufferView": 2,
      "byteOffset": 2304,
      "componentType": 5126,
      "count": 84,
      "max": [
        0.866025447845459,
        1.0,
        1.0
      ],
      "min": [
        -0.8660255074501038,
        -1.0,
        -1.0
      ],
      "type": "VEC3"
    },
    {
      "bufferView": 2,
      "byteOffset": 3312,
      "componentType": 5126,
      "count": 84,
      "max": [
        0.9412590265274048,
        0.9021169543266296,
        0.8151769638061523
      ],
      "min": [
        -0.9412590265274048,
        -0.9021169543266296,
        -0.8151769638061523
      ],
      "type": "VEC3"
    },
    {
      "bufferView": 1,
      "byteOffset": 768,
      "componentType": 5126,
      "count": 84,
      "max": [
        0.9999999403953552,
        1.0
      ],
      "min": [
        0.0,
        0.0
      ],
      "type": "VEC2"
    },
    {
      "bufferView": 0,
      "byteOffset": 624,
      "componentType": 5125,
      "count": 108,
      "type": "SCALAR"
    },
    {
      "bufferView": 2,
      "byteOffset": 4320,
      "componentType": 5126,
      "count": 30,
      "max": [
        0.5133213996887207,
        0.785714328289032,
        -0.2865324318408966
      ],
      "min": [
        0.49788549542427063,
        0.7565680146217346,
        -0.3018215596675873
      ],
      "type": "VEC3"
    },
    {
      "bufferView": 2,
      "byteOffset": 4680,
      "componentType": 5126,
      "count": 30,
      "max": [
        0.9526861906051636,
        0.9990033507347107,
        0.9759470820426941
      ],
      "min": [
        -0.9526861906051636,
        -0.04009868577122688,
        -0.9759680032730103
      ],
      "type": "VEC3"
    },
    {
      "bufferView": 1,
      "byteOffset": 1440,
      "componentType": 5126,
      "count": 30,
      "max": [
        1.0,
        0.9900000095367432
      ],
      "min": [
        -8.940696716308594e-08,
        0.0
      ],
      "type": "VEC2"
    },
    {
      "bufferView": 0,
      "byteOffset": 1056,
      "componentType": 5125,
      "count": 48,
      "type": "SCALAR"
    },
    {
      "bufferView": 2,
      "byteOffset": 5040,
      "componentType": 5126,
      "count": 84,
      "max": [
        0.866025447845459,
        1.0,
        1.0
      ],
      "min": [
        -0.8660255074501038,
        -1.0,
        -1.0
      ],
      "type": "VEC3"
    },
    {
      "bufferView": 2,
      "byteOffset": 6048,
      "componentType": 5126,
      "count": 84,
      "max": [
        0.9412590265274048,
        0.9021169543266296,
        0.8151769638061523
      ],
      "min": [
        -0.9412590265274048,
        -0.9021169543266296,
        -0.8151769638061523
      ],
      "type": "VEC3"
    },
    {
      "bufferView": 1,
      "byteOffset": 1680,
      "componentType": 5126,
      "count": 84,
      "max": [
        0.9999999403953552,
        1.0
      ],
      "min": [
        0.0,
        0.0
      ],
      "type": "VEC2"
    },
    {
      "bufferView": 0,
      "byteOffset": 1248,
      "componentType": 5125,
      "count": 108,
      "type": "SCALAR"
    },
    {
      "bufferView": 2,
      "byteOffset": 7056,
      "componentType": 5126,
      "count": 30,
      "max": [
        -0.029256651178002357,
        0.3909923732280731,
        -0.6635780334472656
      ],
      "min": [
        -0.04626873880624771,
        0.3613921105861664,
        -0.6783829927444458
      ],
      "type": "VEC3"
    },
    {
      "bufferView": 2,
      "byteOffset": 7416,
      "componentType": 5126,
      "count": 30,
      "max": [
        0.9528636336326599,
        0.9961668848991394,
        0.973870038986206
      ],
      "min": [
        -0.9528636336326599,
        -0.08689668774604797,
        -0.973870038986206
      ],
      "type": "VEC3"
    },
    {
      "bufferView": 1,
      "byteOffset": 2352,
      "componentType": 5126,
      "count": 30,
      "max": [
        1.0,
        0.9900000095367432
      ],
      "min": [
        -8.940696716308594e-08,
        0.0
      ],
      "type": "VEC2"
    },
    {
      "bufferView": 0,
      "byteOffset": 1680,
      "componentType": 5125,
      "count": 48,
      "type": "SCALAR"
    },
    {
      "bufferView": 2,
      "byteOffset": 7776,
      "componentType": 5126,
      "count": 84,
      "max": [
        0.866025447845459,
        1.0,
        1.0
      ],
      "min": [
        -0.8660255074501038,
        -1.0,
        -1.0
      ],
      "type": "VEC3"
    },
    {
      "bufferView": 2,
      "byteOffset": 8784,
      "componentType": 5126,
      "count": 84,
      "max": [
        0.9412590265274048,
        0.9021169543266296,
        0.8151769638061523
      ],
      "min": [
        -0.9412590265274048,
        -0.9021169543266296,
        -0.8151769638061523
      ],
      "type": "VEC3"
    },
    {
      "bufferView": 1,
      "byteOffset": 2592,
      "componentType": 5126,
      "count": 84,
      "max": [
        0.9999999403953552,
        1.0
      ],
      "min": [
        0.0,
        0.0
      ],
      "type": "VEC2"
    },
    {
      "bufferView": 0,
      "byteOffset": 1872,
      "componentType": 5125,
      "count": 108,
      "type": "SCALAR"
    },
    {
      "bufferView": 2,
      "byteOffset": 9792,
      "componentType": 5126,
      "count": 30,
      "max": [
        0.2811366021633148,
        1.2235225439071655,
        -0.3314550518989563
      ],
      "min": [
        0.26814624667167664,
        1.1963225603103638,
        -0.34645503759384155
      ],
      "type": "VEC3"
    },
    {
      "bufferView": 2,
      "byteOffset": 10152,
      "componentType": 5126,
      "count": 30,
      "max": [
        1.0,
        1.0,
        0.866019070148468
      ],
      "min": [
        -1.0,
        0.0,
        -0.866019070148468
      ],
      "type": "VEC3"
    },
    {
      "bufferView": 1,
      "byteOffset": 3264,
      "componentType": 5126,
      "count": 30,
      "max": [
        1.0,
        0.9900000095367432
      ],
      "min": [
        -8.940696716308594e-08,
        0.0
      ],
      "type": "VEC2"
    },
    {
      "bufferView": 0,
      "byteOffset": 2304,
      "componentType": 5125,
      "count": 48,
      "type": "SCALAR"
    },
    {
      "bufferView": 2,
      "byteOffset": 10512,
      "componentType": 5126,
      "count": 84,
      "max": [
        0.866025447845459,
        1.0,
        1.0
      ],
      "min": [
        -0.8660255074501038,
        -1.0,
        -1.0
      ],
      "type": "VEC3"
    },
    {
      "bufferView": 2,
      "byteOffset": 11520,
      "componentType": 5126,
      "count": 84,
      "max": [
        0.9412590265274048,
        0.9021169543266296,
        0.8151769638061523
      ],
      "min": [
        -0.9412590265274048,
        -0.9021169543266296,
        -0.8151769638061523
      ],
      "type": "VEC3"
    },
    {
      "bufferView": 1,
      "byteOffset": 3504,
      "componentType": 5126,
      "count": 84,
      "max": [
        0.9999999403953552,
        1.0
      ],
      "min": [
        0.0,
        0.0
      ],
      "type": "VEC2"
    },
    {
      "bufferView": 0,
      "byteOffset": 2496,
      "componentType": 5125,
      "count": 108,
      "type": "SCALAR"
    },
    {
      "bufferView": 2,
      "byteOffset": 12528,
      "componentType": 5126,
      "count": 30,
      "max": [
        -0.2711203694343567,
        0.7791661620140076,
        -0.48851874470710754
      ],
      "min": [
        -0.2841107249259949,
        0.7506592869758606,
        -0.5035187602043152
      ],
      "type": "VEC3"
    },
    {
      "bufferView": 2,
      "byteOffset": 12888,
      "componentType": 5126,
      "count": 30,
      "max": [
        1.0,
        1.0,
        0.866019070148468
      ],
      "min": [
        -1.0,
        0.0,
        -0.866019070148468
      ],
      "type": "VEC3"
    },
    {
      "bufferView": 1,
      "byteOffset": 4176,
      "componentType": 5126,
      "count": 30,
      "max": [
        1.0,
        0.9900000095367432
      ],
      "min": [
        -8.940696716308594e-08,
        0.0
      ],
      "type": "VEC2"
    },
    {
      "bufferView": 0,
      "byteOffset": 2928,
      "componentType": 5125,
      "count": 48,
      "type": "SCALAR"
    },
    {
      "bufferView": 2,
      "byteOffset": 13248,
      "componentType": 5126,
      "count": 84,
      "max": [
        0.866025447845459,
        1.0,
        1.0
      ],
      "min": [
        -0.8660255074501038,
        -1.0,
        -1.0
      ],
      "type": "VEC3"
    },
    {
      "bufferView": 2,
      "byteOffset": 14256,
      "componentType": 5126,
      "count": 84,
      "max": [
        0.9412590265274048,
        0.9021169543266296,
        0.8151769638061523
      ],
      "min": [
        -0.9412590265274048,
        -0.9021169543266296,
        -0.8151769638061523
      ],
      "type": "VEC3"
    },
    {
      "bufferView": 1,
      "byteOffset": 4416,
      "componentType": 5126,
      "count": 84,
      "max": [
        0.9999999403953552,
        1.0
      ],
      "min": [
        0.0,
        0.0
      ],
      "type": "VEC2"
    },
    {
      "bufferView": 0,
      "byteOffset": 3120,
      "componentType": 5125,
      "count": 108,
      "type": "SCALAR"
    },
    {
      "bufferView": 2,
      "byteOffset": 15264,
      "componentType": 5126,
      "count": 30,
      "max": [
        -0.13815006613731384,
        0.8320621252059937,
        0.5661498308181763
      ],
      "min": [
        -0.1529083549976349,
        0.8035552501678467,
        0.5520278215408325
      ],
      "type": "VEC3"
    },
    {
      "bufferView": 2,
      "byteOffset": 15624,
      "componentType": 5126,
      "count": 30,
      "max": [
        0.9414724111557007,
        1.0,
        0.9838859438896179
      ],
      "min": [
        -0.9414724111557007,
        0.0,
        -0.9838859438896179
      ],
      "type": "VEC3"
    },
    {
      "bufferView": 1,
      "byteOffset": 5088,
      "componentType": 5126,
      "count": 30,
      "max": [
        1.0,
        0.9900000095367432
      ],
      "min": [
        -8.940696716308594e-08,
        0.0
      ],
      "type": "VEC2"
    },
    {
      "bufferView": 0,
      "byteOffset": 3552,
      "componentType": 5125,
      "count": 48,
      "type": "SCALAR"
    },
    {
      "bufferView": 2,
      "byteOffset": 15984,
      "componentType": 5126,
      "count": 84,
      "max": [
        0.866025447845459,
        1.0,
        1.0
      ],
      "min": [
        -0.8660255074501038,
        -1.0,
        -1.0
      ],
      "type": "VEC3"
    },
    {
      "bufferView": 2,
      "byteOffset": 16992,
      "componentType": 5126,
      "count": 84,
      "max": [
        0.9412590265274048,
        0.9021169543266296,
        0.8151769638061523
      ],
      "min": [
        -0.9412590265274048,
        -0.9021169543266296,
        -0.8151769638061523
      ],
      "type": "VEC3"
    },
    {
      "bufferView": 1,
      "byteOffset": 5328,
      "componentType": 5126,
      "count": 84,
      "max": [
        0.9999999403953552,
        1.0
      ],
      "min": [
        0.0,
        0.0
      ],
      "type": "VEC2"
    },
    {
      "bufferView": 0,
      "byteOffset": 3744,
      "componentType": 5125,
      "count": 108,
      "type": "SCALAR"
    },
    {
      "bufferView": 2,
      "byteOffset": 18000,
      "componentType": 5126,
      "count": 30,
      "max": [
        0.4871924817562103,
        0.3121386170387268,
        0.45612412691116333
      ],
      "min": [
        0.47420212626457214,
        0.28493863344192505,
        0.4411241412162781
      ],
      "type": "VEC3"
    },
    {
      "bufferView": 2,
      "byteOffset": 18360,
      "componentType": 5126,
      "count": 30,
      "max": [
        1.0,
        1.0,
        0.866019070148468
      ],
      "min": [
        -1.0,
        0.0,
        -0.866019070148468
      ],
      "type": "VEC3"
    },
    {
      "bufferView": 1,
      "byteOffset": 6000,
      "componentType": 5126,
      "count": 30,
      "max": [
        1.0,
        0.9900000095367432
      ],
      "min": [
        -8.940696716308594e-08,
        0.0
      ],
      "type": "VEC2"
    },
    {
      "bufferView": 0,
      "byteOffset": 4176,
      "componentType": 5125,
      "count": 48,
      "type": "SCALAR"
    },
    {
      "bufferView": 2,
      "byteOffset": 18720,
      "componentType": 5126,
      "count": 84,
      "max": [
        0.866025447845459,
        1.0,
        1.0
      ],
      "min": [
        -0.8660255074501038,
        -1.0,
        -1.0
      ],
      "type": "VEC3"
    },
    {
      "bufferView": 2,
      "byteOffset": 19728,
      "componentType": 5126,
      "count": 84,
      "max": [
        0.9412590265274048,
        0.9021169543266296,
        0.8151769638061523
      ],
      "min": [
        -0.9412590265274048,
        -0.9021169543266296,
        -0.8151769638061523
      ],
      "type": "VEC3"
    },
    {
      "bufferView": 1,
      "byteOffset": 6240,
      "componentType": 5126,
      "count": 84,
      "max": [
        0.9999999403953552,
        1.0
      ],
      "min": [
        0.0,
        0.0
      ],
      "type": "VEC2"
    },
    {
      "bufferView": 0,
      "byteOffset": 4368,
      "componentType": 5125,
      "count": 108,
      "type": "SCALAR"
    },
    {
      "bufferView": 2,
      "byteOffset": 20736,
      "componentType": 5126,
      "count": 30,
      "max": [
        -0.6827623248100281,
        0.34110912680625916,
        -0.09726136922836304
      ],
      "min": [
        -0.6961355805397034,
        0.3139091432094574,
        -0.11223986744880676
      ],
      "type": "VEC3"
    },
    {
      "bufferView": 2,
      "byteOffset": 21096,
      "componentType": 5126,
      "count": 30,
      "max": [
        0.9985679984092712,
        1.0,
        0.891548752784729
      ],
      "min": [
        -0.9985679984092712,
        0.0,
        -0.891548752784729
      ],
      "type": "VEC3"
    },
    {
      "bufferView": 1,
      "byteOffset": 6912,
      "componentType": 5126,
      "count": 30,
      "max": [
        1.0,
        0.9900000095367432
      ],
      "min": [
        -8.940696716308594e-08,
        0.0
      ],
      "type": "VEC2"
    },
    {
      "bufferView": 0,
      "byteOffset": 4800,
      "componentType": 5125,
      "count": 48,
      "type": "SCALAR"
    },
    {
      "bufferView": 2,
      "byteOffset": 21456,
      "componentType": 5126,
      "count": 84,
      "max": [
        0.866025447845459,
        1.0,
        1.0
      ],
      "min": [
        -0.8660255074501038,
        -1.0,
        -1.0
      ],
      "type": "VEC3"
    },
    {
      "bufferView": 2,
      "byteOffset": 22464,
      "componentType": 5126,
      "count": 84,
      "max": [
        0.9412590265274048,
        0.9021169543266296,
        0.8151769638061523
      ],
      "min": [
        -0.9412590265274048,
        -0.9021169543266296,
        -0.8151769638061523
      ],
      "type": "VEC3"
    },
    {
      "bufferView": 1,
      "byteOffset": 7152,
      "componentType": 5126,
      "count": 84,
      "max": [
        0.9999999403953552,
        1.0
      ],
      "min": [
        0.0,
        0.0
      ],
      "type": "VEC2"
    },
    {
      "bufferView": 0,
      "byteOffset": 4992,
      "componentType": 5125,
      "count": 108,
      "type": "SCALAR"
    },
    {
      "bufferView": 2,
      "byteOffset": 23472,
      "componentType": 5126,
      "count": 84,
      "max": [
        0.4080331325531006,
        1.2284477949142456,
        0.32122552394866943
      ],
      "min": [
        0.32143059372901917,
        1.1289478540420532,
        0.2212255448102951
      ],
      "type": "VEC3"
    },
    {
      "bufferView": 2,
      "byteOffset": 24480,
      "componentType": 5126,
      "count": 84,
      "max": [
        0.9407126903533936,
        0.902977705001831,
        0.8146719336509705
      ],
      "min": [
        -0.9407126903533936,
        -0.902977705001831,
        -0.8146719336509705
      ],
      "type": "VEC3"
    },
    {
      "bufferView": 1,
      "byteOffset": 7824,
      "componentType": 5126,
      "count": 84,
      "max": [
        0.9999999403953552,
        1.0
      ],
      "min": [
        0.0,
        0.0
      ],
      "type": "VEC2"
    },
    {
      "bufferView": 0,
      "byteOffset": 5424,
      "componentType": 5125,
      "count": 108,
      "type": "SCALAR"
    },
    {
      "bufferView": 2,
      "byteOffset": 25488,
      "componentType": 5126,
      "count": 30,
      "max": [
        0.5045309662818909,
        0.3176947832107544,
        -0.4616238474845886
      ],
      "min": [
        0.48958009481430054,
        0.29049479961395264,
        -0.4751783013343811
      ],
      "type": "VEC3"
    },
    {
      "bufferView": 2,
      "byteOffset": 25848,
      "componentType": 5126,
      "count": 30,
      "max": [
        0.9036298990249634,
        1.0,
        0.9967221021652222
      ],
      "min": [
        -0.9036298990249634,
        0.0,
        -0.9967221021652222
      ],
      "type": "VEC3"
    },
    {
      "bufferView": 1,
      "byteOffset": 8496,
      "componentType": 5126,
      "count": 30,
      "max": [
        1.0,
        0.9900000095367432
      ],
      "min": [
        -8.940696716308594e-08,
        0.0
      ],
      "type": "VEC2"
    },
    {
      "bufferView": 0,
      "byteOffset": 5856,
      "componentType": 5125,
      "count": 48,
      "type": "SCALAR"
    },
    {
      "bufferView": 2,
      "byteOffset": 26208,
      "componentType": 5126,
      "count": 30,
      "max": [
        -0.482316792011261,
        0.32738813757896423,
        0.47563251852989197
      ],
      "min": [
        -0.49748486280441284,
        0.299370139837265,
        0.4601322114467621
      ],
      "type": "VEC3"
    },
    {
      "bufferView": 2,
      "byteOffset": 26568,
      "componentType": 5126,
      "count": 30,
      "max": [
        0.9924511313438416,
        0.9983413815498352,
        0.9162966012954712
      ],
      "min": [
        -0.9924511313438416,
        -0.050402600318193436,
        -0.9162966012954712
      ],
      "type": "VEC3"
    },
    {
      "bufferView": 1,
      "byteOffset": 8736,
      "componentType": 5126,
      "count": 30,
      "max": [
        1.0,
        0.9900000095367432
      ],
      "min": [
        -8.940696716308594e-08,
        0.0
      ],
      "type": "VEC2"
    },
    {
      "bufferView": 0,
      "byteOffset": 6048,
      "componentType": 5125,
      "count": 48,
      "type": "SCALAR"
    },
    {
      "bufferView": 2,
      "byteOffset": 26928,
      "componentType": 5126,
      "count": 84,
      "max": [
        0.866025447845459,
        1.0,
        1.0
      ],
      "min": [
        -0.8660255074501038,
        -1.0,
        -1.0
      ],
      "type": "VEC3"
    },
    {
      "bufferView": 2,
      "byteOffset": 27936,
      "componentType": 5126,
      "count": 84,
      "max": [
        0.9412590265274048,
        0.9021169543266296,
        0.8151769638061523
      ],
      "min": [
        -0.9412590265274048,
        -0.9021169543266296,
        -0.8151769638061523
      ],
      "type": "VEC3"
    },
    {
      "bufferView": 1,
      "byteOffset": 8976,
      "componentType": 5126,
      "count": 84,
      "max": [
        0.9999999403953552,
        1.0
      ],
      "min": [
        0.0,
        0.0
      ],
      "type": "VEC2"
    },
    {
      "bufferView": 0,
      "byteOffset": 6240,
      "componentType": 5125,
      "count": 108,
      "type": "SCALAR"
    },
    {
      "bufferView": 2,
      "byteOffset": 28944,
      "componentType": 5126,
      "count": 30,
      "max": [
        0.5759873390197754,
        0.8350542187690735,
        0.15949907898902893
      ],
      "min": [
        0.5610607862472534,
        0.8072947859764099,
        0.14397522807121277
      ],
      "type": "VEC3"
    },
    {
      "bufferView": 2,
      "byteOffset": 29304,
      "componentType": 5126,
      "count": 30,
      "max": [
        0.9613635540008545,
        0.999068021774292,
        0.9691746234893799
      ],
      "min": [
        -0.9613898992538452,
        -0.04299887269735336,
        -0.9691746234893799
      ],
      "type": "VEC3"
    },
    {
      "bufferView": 1,
      "byteOffset": 9648,
      "componentType": 5126,
      "count": 30,
      "max": [
        1.0,
        0.9900000095367432
      ],
      "min": [
        -8.940696716308594e-08,
        0.0
      ],
      "type": "VEC2"
    },
    {
      "bufferView": 0,
      "byteOffset": 6672,
      "componentType": 5125,
      "count": 48,
      "type": "SCALAR"
    },
    {
      "bufferView": 2,
      "byteOffset": 29664,
      "componentType": 5126,
      "count": 84,
      "max": [
        0.866025447845459,
        1.0,
        1.0
      ],
      "min": [
        -0.8660255074501038,
        -1.0,
        -1.0
      ],
      "type": "VEC3"
    },
    {
      "bufferView": 2,
      "byteOffset": 30672,
      "componentType": 5126,
      "count": 84,
      "max": [
        0.9412590265274048,
        0.9021169543266296,
        0.8151769638061523
      ],
      "min": [
        -0.9412590265274048,
        -0.9021169543266296,
        -0.8151769638061523
      ],
      "type": "VEC3"
    },
    {
      "bufferView": 1,
      "byteOffset": 9888,
      "componentType": 5126,
      "count": 84,
      "max": [
        0.9999999403953552,
        1.0
      ],
      "min": [
        0.0,
        0.0
      ],
      "type": "VEC2"
    },
    {
      "bufferView": 0,
      "byteOffset": 6864,
      "componentType": 5125,
      "count": 108,
      "type": "SCALAR"
    },
    {
      "bufferView": 2,
      "byteOffset": 31680,
      "componentType": 5126,
      "count": 30,
      "max": [
        -0.36604735255241394,
        1.192825198173523,
        -0.2302628457546234
      ],
      "min": [
        -0.3809982240200043,
        1.1656252145767212,
        -0.24381732940673828
      ],
      "type": "VEC3"
    },
    {
      "bufferView": 2,
      "byteOffset": 32040,
      "componentType": 5126,
      "count": 30,
      "max": [
        0.9036298990249634,
        1.0,
        0.9967221021652222
      ],
      "min": [
        -0.9036298990249634,
        0.0,
        -0.9967221021652222
      ],
      "type": "VEC3"
    },
    {
      "bufferView": 1,
      "byteOffset": 10560,
      "componentType": 5126,
      "count": 30,
      "max": [
        1.0,
        0.9900000095367432
      ],
      "min": [
        -8.940696716308594e-08,
        0.0
      ],
      "type": "VEC2"
    },
    {
      "bufferView": 0,
      "byteOffset": 7296,
      "componentType": 5125,
      "count": 48,
      "type": "SCALAR"
    },
    {
      "bufferView": 2,
      "byteOffset": 32400,
      "componentType": 5126,
      "count": 84,
      "max": [
        0.866025447845459,
        1.0,
        1.0
      ],
      "min": [
        -0.8660255074501038,
        -1.0,
        -1.0
      ],
      "type": "VEC3"
    },
    {
      "bufferView": 2,
      "byteOffset": 33408,
      "componentType": 5126,
      "count": 84,
      "max": [
        0.9412590265274048,
        0.9021169543266296,
        0.8151769638061523
      ],
      "min": [
        -0.9412590265274048,
        -0.9021169543266296,
        -0.8151769638061523
      ],
      "type": "VEC3"
    },
    {
      "bufferView": 1,
      "byteOffset": 10800,
      "componentType": 5126,
      "count": 84,
      "max": [
        0.9999999403953552,
        1.0
      ],
      "min": [
        0.0,
        0.0
      ],
      "type": "VEC2"
    },
    {
      "bufferView": 0,
      "byteOffset": 7488,
      "componentType": 5125,
      "count": 108,
      "type": "SCALAR"
    },
    {
      "bufferView": 2,
      "byteOffset": 34416,
      "componentType": 5126,
      "count": 30,
      "max": [
        -0.5729560852050781,
        0.7812870740890503,
        -0.12590870261192322
      ],
      "min": [
        -0.587905764579773,
        0.7539845705032349,
        -0.13968250155448914
      ],
      "type": "VEC3"
    },
    {
      "bufferView": 2,
      "byteOffset": 34776,
      "componentType": 5126,
      "count": 30,
      "max": [
        0.9044281244277954,
        0.9999711513519287,
        0.9965369701385498
      ],
      "min": [
        -0.9044281244277954,
        -0.0076002818532288074,
        -0.9965369701385498
      ],
      "type": "VEC3"
    },
    {
      "bufferView": 1,
      "byteOffset": 11472,
      "componentType": 5126,
      "count": 30,
      "max": [
        1.0,
        0.9900000095367432
      ],
      "min": [
        -8.940696716308594e-08,
        0.0
      ],
      "type": "VEC2"
    },
    {
      "bufferView": 0,
      "byteOffset": 7920,
      "componentType": 5125,
      "count": 48,
      "type": "SCALAR"
    },
    {
      "bufferView": 2,
      "byteOffset": 35136,
      "componentType": 5126,
      "count": 84,
      "max": [
        0.866025447845459,
        1.0,
        1.0
      ],
      "min": [
        -0.8660255074501038,
        -1.0,
        -1.0
      ],
      "type": "VEC3"
    },
    {
      "bufferView": 2,
      "byteOffset": 36144,
      "componentType": 5126,
      "count": 84,
      "max": [
        0.9412590265274048,
        0.9021169543266296,
        0.8151769638061523
      ],
      "min": [
        -0.9412590265274048,
        -0.9021169543266296,
        -0.8151769638061523
      ],
      "type": "VEC3"
    },
    {
      "bufferView": 1,
      "byteOffset": 11712,
      "componentType": 5126,
      "count": 84,
      "max": [
        0.9999999403953552,
        1.0
      ],
      "min": [
        0.0,
        0.0
      ],
      "type": "VEC2"
    },
    {
      "bufferView": 0,
      "byteOffset": 8112,
      "componentType": 5125,
      "count": 108,
      "type": "SCALAR"
    },
    {
      "bufferView": 2,
      "byteOffset": 37152,
      "componentType": 5126,
      "count": 30,
      "max": [
        0.10738281160593033,
        1.2758522033691406,
        0.4485603868961334
      ],
      "min": [
        0.0923897996544838,
        1.2476298809051514,
        0.4327903091907501
      ],
      "type": "VEC3"
    },
    {
      "bufferView": 2,
      "byteOffset": 37512,
      "componentType": 5126,
      "count": 30,
      "max": [
        0.9037249088287354,
        0.9965396523475647,
        0.9932517409324646
      ],
      "min": [
        -0.9037249088287354,
        -0.08290432393550873,
        -0.9932517409324646
      ],
      "type": "VEC3"
    },
    {
      "bufferView": 1,
      "byteOffset": 12384,
      "componentType": 5126,
      "count": 30,
      "max": [
        1.0,
        0.9900000095367432
      ],
      "min": [
        -8.940696716308594e-08,
        0.0
      ],
      "type": "VEC2"
    },
    {
      "bufferView": 0,
      "byteOffset": 8544,
      "componentType": 5125,
      "count": 48,
      "type": "SCALAR"
    },
    {
      "bufferView": 2,
      "byteOffset": 37872,
      "componentType": 5126,
      "count": 84,
      "max": [
        0.866025447845459,
        1.0,
        1.0
      ],
      "min": [
        -0.8660255074501038,
        -1.0,
        -1.0
      ],
      "type": "VEC3"
    },
    {
      "bufferView": 2,
      "byteOffset": 38880,
      "componentType": 5126,
      "count": 84,
      "max": [
        0.9412590265274048,
        0.9021169543266296,
        0.8151769638061523
      ],
      "min": [
        -0.9412590265274048,
        -0.9021169543266296,
        -0.8151769638061523
      ],
      "type": "VEC3"
    },
    {
      "bufferView": 1,
      "byteOffset": 12624,
      "componentType": 5126,
      "count": 84,
      "max": [
        0.9999999403953552,
        1.0
      ],
      "min": [
        0.0,
        0.0
      ],
      "type": "VEC2"
    },
    {
      "bufferView": 0,
      "byteOffset": 8736,
      "componentType": 5125,
      "count": 108,
      "type": "SCALAR"
    },
    {
      "bufferView": 2,
      "byteOffset": 39888,
      "componentType": 5126,
      "count": 84,
      "max": [
        0.5469022989273071,
        0.2967313528060913,
        -0.42323485016822815
      ],
      "min": [
        0.4472300112247467,
        0.19723562896251678,
        -0.5135980844497681
      ],
      "type": "VEC3"
    },
    {
      "bufferView": 2,
      "byteOffset": 40896,
      "componentType": 5126,
      "count": 84,
      "max": [
        0.8500766754150391,
        0.9029810428619385,
        0.937627375125885
      ],
      "min": [
        -0.8500766754150391,
        -0.9029810428619385,
        -0.937627375125885
      ],
      "type": "VEC3"
    },
    {
      "bufferView": 1,
      "byteOffset": 13296,
      "componentType": 5126,
      "count": 84,
      "max": [
        0.9999999403953552,
        1.0
      ],
      "min": [
        0.0,
        0.0
      ],
      "type": "VEC2"
    },
    {
      "bufferView": 0,
      "byteOffset": 9168,
      "componentType": 5125,
      "count": 108,
      "type": "SCALAR"
    },
    {
      "bufferView": 2,
      "byteOffset": 41904,
      "componentType": 5126,
      "count": 30,
      "max": [
        -0.4537886083126068,
        0.414043128490448,
        -0.48724254965782166
      ],
      "min": [
        -0.46853259205818176,
        0.3866082429885864,
        -0.5020967721939087
      ],
      "type": "VEC3"
    },
    {
      "bufferView": 2,
      "byteOffset": 42264,
      "componentType": 5126,
      "count": 30,
      "max": [
        0.9648358225822449,
        0.9998619556427002,
        0.9669002294540405
      ],
      "min": [
        -0.9648358225822449,
        -0.01620018482208252,
        -0.9669002294540405
      ],
      "type": "VEC3"
    },
    {
      "bufferView": 1,
      "byteOffset": 13968,
      "componentType": 5126,
      "count": 30,
      "max": [
        1.0,
        0.9900000095367432
      ],
      "min": [
        -8.940696716308594e-08,
        0.0
      ],
      "type": "VEC2"
    },
    {
      "bufferView": 0,
      "byteOffset": 9600,
      "componentType": 5125,
      "count": 48,
      "type": "SCALAR"
    },
    {
      "bufferView": 2,
      "byteOffset": 42624,
      "componentType": 5126,
      "count": 30,
      "max": [
        0.16851800680160522,
        0.8141077756881714,
        -0.5494583249092102
      ],
      "min": [
        0.15323913097381592,
        0.7866729497909546,
        -0.5634254813194275
      ],
      "type": "VEC3"
    },
    {
      "bufferView": 2,
      "byteOffset": 42984,
      "componentType": 5126,
      "count": 30,
      "max": [
        0.9127945899963379,
        0.9998619556427002,
        0.9946261644363403
      ],
      "min": [
        -0.9127945899963379,
        -0.016199903562664986,
        -0.9946261644363403
      ],
      "type": "VEC3"
    },
    {
      "bufferView": 1,
      "byteOffset": 14208,
      "componentType": 5126,
      "count": 30,
      "max": [
        1.0,
        0.9900000095367432
      ],
      "min": [
        -8.940696716308594e-08,
        0.0
      ],
      "type": "VEC2"
    },
    {
      "bufferView": 0,
      "byteOffset": 9792,
      "componentType": 5125,
      "count": 48,
      "type": "SCALAR"
    },
    {
      "bufferView": 2,
      "byteOffset": 43344,
      "componentType": 5126,
      "count": 84,
      "max": [
        0.866025447845459,
        1.0,
        1.0
      ],
      "min": [
        -0.8660255074501038,
        -1.0,
        -1.0
      ],
      "type": "VEC3"
    },
    {
      "bufferView": 2,
      "byteOffset": 44352,
      "componentType": 5126,
      "count": 84,
      "max": [
        0.9412590265274048,
        0.9021169543266296,
        0.8151769638061523
      ],
      "min": [
        -0.9412590265274048,
        -0.9021169543266296,
        -0.8151769638061523
      ],
      "type": "VEC3"
    },
    {
      "bufferView": 1,
      "byteOffset": 14448,
      "componentType": 5126,
      "count": 84,
      "max": [
        0.9999999403953552,
        1.0
      ],
      "min": [
        0.0,
        0.0
      ],
      "type": "VEC2"
    },
    {
      "bufferView": 0,
      "byteOffset": 9984,
      "componentType": 5125,
      "count": 108,
      "type": "SCALAR"
    },
    {
      "bufferView": 2,
      "byteOffset": 45360,
      "componentType": 5126,
      "count": 30,
      "max": [
        0.26051065325737,
        0.7971975803375244,
        0.5566607117652893
      ],
      "min": [
        0.2452317774295807,
        0.7697627544403076,
        0.542693555355072
      ],
      "type": "VEC3"
    },
    {
      "bufferView": 2,
      "byteOffset": 45720,
      "componentType": 5126,
      "count": 30,
      "max": [
        0.9127945899963379,
        0.9998619556427002,
        0.9946261644363403
      ],
      "min": [
        -0.9127945899963379,
        -0.016199903562664986,
        -0.9946261644363403
      ],
      "type": "VEC3"
    },
    {
      "bufferView": 1,
      "byteOffset": 15120,
      "componentType": 5126,
      "count": 30,
      "max": [
        1.0,
        0.9900000095367432
      ],
      "min": [
        -8.940696716308594e-08,
        0.0
      ],
      "type": "VEC2"
    },
    {
      "bufferView": 0,
      "byteOffset": 10416,
      "componentType": 5125,
      "count": 48,
      "type": "SCALAR"
    },
    {
      "bufferView": 2,
      "byteOffset": 46080,
      "componentType": 5126,
      "count": 84,
      "max": [
        0.866025447845459,
        1.0,
        1.0
      ],
      "min": [
        -0.8660255074501038,
        -1.0,
        -1.0
      ],
      "type": "VEC3"
    },
    {
      "bufferView": 2,
      "byteOffset": 47088,
      "componentType": 5126,
      "count": 84,
      "max": [
        0.9412590265274048,
        0.9021169543266296,
        0.8151769638061523
      ],
      "min": [
        -0.9412590265274048,
        -0.9021169543266296,
        -0.8151769638061523
      ],
      "type": "VEC3"
    },
    {
      "bufferView": 1,
      "byteOffset": 15360,
      "componentType": 5126,
      "count": 84,
      "max": [
        0.9999999403953552,
        1.0
      ],
      "min": [
        0.0,
        0.0
      ],
      "type": "VEC2"
    },
    {
      "bufferView": 0,
      "byteOffset": 10608,
      "componentType": 5125,
      "count": 108,
      "type": "SCALAR"
    },
    {
      "bufferView": 2,
      "byteOffset": 48096,
      "componentType": 5126,
      "count": 30,
      "max": [
        -0.4537886083126068,
        0.414043128490448,
        -0.4872424304485321
      ],
      "min": [
        -0.46853259205818176,
        0.3866082429885864,
        -0.5020966529846191
      ],
      "type": "VEC3"
    },
    {
      "bufferView": 2,
      "byteOffset": 48456,
      "componentType": 5126,
      "count": 30,
      "max": [
        0.9648358225822449,
        0.9998619556427002,
        0.9669002294540405
      ],
      "min": [
        -0.9648358225822449,
        -0.01620018482208252,
        -0.9669002294540405
      ],
      "type": "VEC3"
    },
    {
      "bufferView": 1,
      "byteOffset": 16032,
      "componentType": 5126,
      "count": 30,
      "max": [
        1.0,
        0.9900000095367432
      ],
      "min": [
        -8.940696716308594e-08,
        0.0
      ],
      "type": "VEC2"
    },
    {
      "bufferView": 0,
      "byteOffset": 11040,
      "componentType": 5125,
      "count": 48,
      "type": "SCALAR"
    },
    {
      "bufferView": 2,
      "byteOffset": 48816,
      "componentType": 5126,
      "count": 84,
      "max": [
        0.866025447845459,
        1.0,
        1.0
      ],
      "min": [
        -0.8660255074501038,
        -1.0,
        -1.0
      ],
      "type": "VEC3"
    },
    {
      "bufferView": 2,
      "byteOffset": 49824,
      "componentType": 5126,
      "count": 84,
      "max": [
        0.9412590265274048,
        0.9021169543266296,
        0.8151769638061523
      ],
      "min": [
        -0.9412590265274048,
        -0.9021169543266296,
        -0.8151769638061523
      ],
      "type": "VEC3"
    },
    {
      "bufferView": 1,
      "byteOffset": 16272,
      "componentType": 5126,
      "count": 84,
      "max": [
        0.9999999403953552,
        1.0
      ],
      "min": [
        0.0,
        0.0
      ],
      "type": "VEC2"
    },
    {
      "bufferView": 0,
      "byteOffset": 11232,
      "componentType": 5125,
      "count": 108,
      "type": "SCALAR"
    },
    {
      "bufferView": 2,
      "byteOffset": 50832,
      "componentType": 5126,
      "count": 30,
      "max": [
        0.6906976699829102,
        0.3811102509498596,
        -0.003960014320909977
      ],
      "min": [
        0.6759536266326904,
        0.35367536544799805,
        -0.018814213573932648
      ],
      "type": "VEC3"
    },
    {
      "bufferView": 2,
      "byteOffset": 51192,
      "componentType": 5126,
      "count": 30,
      "max": [
        0.9648358225822449,
        0.9998619556427002,
        0.9669002294540405
      ],
      "min": [
        -0.9648358225822449,
        -0.016199035570025444,
        -0.9669002294540405
      ],
      "type": "VEC3"
    },
    {
      "bufferView": 1,
      "byteOffset": 16944,
      "componentType": 5126,
      "count": 30,
      "max": [
        1.0,
        0.9900000095367432
      ],
      "min": [
        -8.940696716308594e-08,
        0.0
      ],
      "type": "VEC2"
    },
    {
      "bufferView": 0,
      "byteOffset": 11664,
      "componentType": 5125,
      "count": 48,
      "type": "SCALAR"
    },
    {
      "bufferView": 2,
      "byteOffset": 51552,
      "componentType": 5126,
      "count": 84,
      "max": [
        0.866025447845459,
        1.0,
        1.0
      ],
      "min": [
        -0.8660255074501038,
        -1.0,
        -1.0
      ],
      "type": "VEC3"
    },
    {
      "bufferView": 2,
      "byteOffset": 52560,
      "componentType": 5126,
      "count": 84,
      "max": [
        0.9412590265274048,
        0.9021169543266296,
        0.8151769638061523
      ],
      "min": [
        -0.9412590265274048,
        -0.9021169543266296,
        -0.8151769638061523
      ],
      "type": "VEC3"
    },
    {
      "bufferView": 1,
      "byteOffset": 17184,
      "componentType": 5126,
      "count": 84,
      "max": [
        0.9999999403953552,
        1.0
      ],
      "min": [
        0.0,
        0.0
      ],
      "type": "VEC2"
    },
    {
      "bufferView": 0,
      "byteOffset": 11856,
      "componentType": 5125,
      "count": 108,
      "type": "SCALAR"
    },
    {
      "bufferView": 2,
      "byteOffset": 53568,
      "componentType": 5126,
      "count": 30,
      "max": [
        -0.48530513048171997,
        0.8140561580657959,
        0.31365659832954407
      ],
      "min": [
        -0.5011081099510193,
        0.7859569787979126,
        0.2981642782688141
      ],
      "type": "VEC3"
    },
    {
      "bufferView": 2,
      "byteOffset": 53928,
      "componentType": 5126,
      "count": 30,
      "max": [
        0.9412965178489685,
        0.997967541217804,
        0.9820002317428589
      ],
      "min": [
        -0.9412965178489685,
        -0.05660001561045647,
        -0.9820002317428589
      ],
      "type": "VEC3"
    },
    {
      "bufferView": 1,
      "byteOffset": 17856,
      "componentType": 5126,
      "count": 30,
      "max": [
        1.0,
        0.9900000095367432
      ],
      "min": [
        -8.940696716308594e-08,
        0.0
      ],
      "type": "VEC2"
    },
    {
      "bufferView": 0,
      "byteOffset": 12288,
      "componentType": 5125,
      "count": 48,
      "type": "SCALAR"
    },
    {
      "bufferView": 2,
      "byteOffset": 54288,
      "componentType": 5126,
      "count": 84,
      "max": [
        0.866025447845459,
        1.0,
        1.0
      ],
      "min": [
        -0.8660255074501038,
        -1.0,
        -1.0
      ],
      "type": "VEC3"
    },
    {
      "bufferView": 2,
      "byteOffset": 55296,
      "componentType": 5126,
      "count": 84,
      "max": [
        0.9412590265274048,
        0.9021169543266296,
        0.8151769638061523
      ],
      "min": [
        -0.9412590265274048,
        -0.9021169543266296,
        -0.8151769638061523
      ],
      "type": "VEC3"
    },
    {
      "bufferView": 1,
      "byteOffset": 18096,
      "componentType": 5126,
      "count": 84,
      "max": [
        0.9999999403953552,
        1.0
      ],
      "min": [
        0.0,
        0.0
      ],
      "type": "VEC2"
    },
    {
      "bufferView": 0,
      "byteOffset": 12480,
      "componentType": 5125,
      "count": 108,
      "type": "SCALAR"
    },
    {
      "bufferView": 2,
      "byteOffset": 56304,
      "componentType": 5126,
      "count": 30,
      "max": [
        0.40901511907577515,
        1.2617236375808716,
        -0.05476861447095871
      ],
      "min": [
        0.3942711353302002,
        1.2342888116836548,
        -0.06962281465530396
      ],
      "type": "VEC3"
    },
    {
      "bufferView": 2,
      "byteOffset": 56664,
      "componentType": 5126,
      "count": 30,
      "max": [
        0.9648358225822449,
        0.9998619556427002,
        0.9669002294540405
      ],
      "min": [
        -0.9648358225822449,
        -0.01620018482208252,
        -0.9669002294540405
      ],
      "type": "VEC3"
    },
    {
      "bufferView": 1,
      "byteOffset": 18768,
      "componentType": 5126,
      "count": 30,
      "max": [
        1.0,
        0.9900000095367432
      ],
      "min": [
        -8.940696716308594e-08,
        0.0
      ],
      "type": "VEC2"
    },
    {
      "bufferView": 0,
      "byteOffset": 12912,
      "componentType": 5125,
      "count": 48,
      "type": "SCALAR"
    },
    {
      "bufferView": 2,
      "byteOffset": 57024,
      "componentType": 5126,
      "count": 84,
      "max": [
        0.866025447845459,
        1.0,
        1.0
      ],
      "min": [
        -0.8660255074501038,
        -1.0,
        -1.0
      ],
      "type": "VEC3"
    },
    {
      "bufferView": 2,
      "byteOffset": 58032,
      "componentType": 5126,
      "count": 84,
      "max": [
        0.9412590265274048,
        0.9021169543266296,
        0.8151769638061523
      ],
      "min": [
        -0.9412590265274048,
        -0.9021169543266296,
        -0.8151769638061523
      ],
      "type": "VEC3"
    },
    {
      "bufferView": 1,
      "byteOffset": 19008,
      "componentType": 5126,
      "count": 84,
      "max": [
        0.9999999403953552,
        1.0
      ],
      "min": [
        0.0,
        0.0
      ],
      "type": "VEC2"
    },
    {
      "bufferView": 0,
      "byteOffset": 13104,
      "componentType": 5125,
      "count": 108,
      "type": "SCALAR"
    },
    {
      "bufferView": 2,
      "byteOffset": 59040,
      "componentType": 5126,
      "count": 30,
      "max": [
        -0.42690691351890564,
        1.2517458200454712,
        0.08461441099643707
      ],
      "min": [
        -0.4416508972644806,
        1.2243109941482544,
        0.06976021826267242
      ],
      "type": "VEC3"
    },
    {
      "bufferView": 2,
      "byteOffset": 59400,
      "componentType": 5126,
      "count": 30,
      "max": [
        0.9648358225822449,
        0.9998619556427002,
        0.9669002294540405
      ],
      "min": [
        -0.9648358225822449,
        -0.01620018482208252,
        -0.9669002294540405
      ],
      "type": "VEC3"
    },
    {
      "bufferView": 1,
      "byteOffset": 19680,
      "componentType": 5126,
      "count": 30,
      "max": [
        1.0,
        0.9900000095367432
      ],
      "min": [
        -8.940696716308594e-08,
        0.0
      ],
      "type": "VEC2"
    },
    {
      "bufferView": 0,
      "byteOffset": 13536,
      "componentType": 5125,
      "count": 48,
      "type": "SCALAR"
    },
    {
      "bufferView": 2,
      "byteOffset": 59760,
      "componentType": 5126,
      "count": 84,
      "max": [
        0.866025447845459,
        1.0,
        1.0
      ],
      "min": [
        -0.8660255074501038,
        -1.0,
        -1.0
      ],
      "type": "VEC3"
    },
    {
      "bufferView": 2,
      "byteOffset": 60768,
      "componentType": 5126,
      "count": 84,
      "max": [
        0.9412590265274048,
        0.9021169543266296,
        0.8151769638061523
      ],
      "min": [
        -0.9412590265274048,
        -0.9021169543266296,
        -0.8151769638061523
      ],
      "type": "VEC3"
    },
    {
      "bufferView": 1,
      "byteOffset": 19920,
      "componentType": 5126,
      "count": 84,
      "max": [
        0.9999999403953552,
        1.0
      ],
      "min": [
        0.0,
        0.0
      ],
      "type": "VEC2"
    },
    {
      "bufferView": 0,
      "byteOffset": 13728,
      "componentType": 5125,
      "count": 108,
      "type": "SCALAR"
    },
    {
      "bufferView": 2,
      "byteOffset": 61776,
      "componentType": 5126,
      "count": 30,
      "max": [
        0.003872707486152649,
        0.3212127387523651,
        0.6594476699829102
      ],
      "min": [
        -0.01087129395455122,
        0.29377785325050354,
        0.6445934772491455
      ],
      "type": "VEC3"
    },
    {
      "bufferView": 2,
      "byteOffset": 62136,
      "componentType": 5126,
      "count": 30,
      "max": [
        0.9648358225822449,
        0.9998619556427002,
        0.9669002294540405
      ],
      "min": [
        -0.9648358225822449,
        -0.01620018482208252,
        -0.9669002294540405
      ],
      "type": "VEC3"
    },
    {
      "bufferView": 1,
      "byteOffset": 20592,
      "componentType": 5126,
      "count": 30,
      "max": [
        1.0,
        0.9900000095367432
      ],
      "min": [
        -8.940696716308594e-08,
        0.0
      ],
      "type": "VEC2"
    },
    {
      "bufferView": 0,
      "byteOffset": 14160,
      "componentType": 5125,
      "count": 48,
      "type": "SCALAR"
    },
    {
      "bufferView": 2,
      "byteOffset": 62496,
      "componentType": 5126,
      "count": 84,
      "max": [
        0.866025447845459,
        1.0,
        1.0
      ],
      "min": [
        -0.8660255074501038,
        -1.0,
        -1.0
      ],
      "type": "VEC3"
    },
    {
      "bufferView": 2,
      "byteOffset": 63504,
      "componentType": 5126,
      "count": 84,
      "max": [
        0.9412590265274048,
        0.9021169543266296,
        0.8151769638061523
      ],
      "min": [
        -0.9412590265274048,
        -0.9021169543266296,
        -0.8151769638061523
      ],
      "type": "VEC3"
    },
    {
      "bufferView": 1,
      "byteOffset": 20832,
      "componentType": 5126,
      "count": 84,
      "max": [
        0.9999999403953552,
        1.0
      ],
      "min": [
        0.0,
        0.0
      ],
      "type": "VEC2"
    },
    {
      "bufferView": 0,
      "byteOffset": 14352,
      "componentType": 5125,
      "count": 108,
      "type": "SCALAR"
    },
    {
      "bufferView": 2,
      "byteOffset": 64512,
      "componentType": 5126,
      "count": 30,
      "max": [
        -0.06345809996128082,
        1.234862208366394,
        -0.4025525450706482
      ],
      "min": [
        -0.0779661238193512,
        1.206638216972351,
        -0.4192808270454407
      ],
      "type": "VEC3"
    },
    {
      "bufferView": 2,
      "byteOffset": 64872,
      "componentType": 5126,
      "count": 30,
      "max": [
        0.9778366088867188,
        0.9969701766967773,
        0.9483953714370728
      ],
      "min": [
        -0.9778366088867188,
        -0.07619962841272354,
        -0.9483953714370728
      ],
      "type": "VEC3"
    },
    {
      "bufferView": 1,
      "byteOffset": 21504,
      "componentType": 5126,
      "count": 30,
      "max": [
        1.0,
        0.9900000095367432
      ],
      "min": [
        -8.940696716308594e-08,
        0.0
      ],
      "type": "VEC2"
    },
    {
      "bufferView": 0,
      "byteOffset": 14784,
      "componentType": 5125,
      "count": 48,
      "type": "SCALAR"
    },
    {
      "bufferView": 2,
      "byteOffset": 65232,
      "componentType": 5126,
      "count": 84,
      "max": [
        0.866025447845459,
        1.0,
        1.0
      ],
      "min": [
        -0.8660255074501038,
        -1.0,
        -1.0
      ],
      "type": "VEC3"
    },
    {
      "bufferView": 2,
      "byteOffset": 66240,
      "componentType": 5126,
      "count": 84,
      "max": [
        0.9412590265274048,
        0.9021169543266296,
        0.8151769638061523
      ],
      "min": [
        -0.9412590265274048,
        -0.9021169543266296,
        -0.8151769638061523
      ],
      "type": "VEC3"
    },
    {
      "bufferView": 1,
      "byteOffset": 21744,
      "componentType": 5126,
      "count": 84,
      "max": [
        0.9999999403953552,
        1.0
      ],
      "min": [
        0.0,
        0.0
      ],
      "type": "VEC2"
    },
    {
      "bufferView": 0,
      "byteOffset": 14976,
      "componentType": 5125,
      "count": 108,
      "type": "SCALAR"
    },
    {
      "bufferView": 2,
      "byteOffset": 67248,
      "componentType": 5126,
      "count": 84,
      "max": [
        -0.4123051166534424,
        0.39296355843544006,
        -0.44725513458251953
      ],
      "min": [
        -0.5089983344078064,
        0.2934815585613251,
        -0.5437289476394653
      ],
      "type": "VEC3"
    },
    {
      "bufferView": 2,
      "byteOffset": 68256,
      "componentType": 5126,
      "count": 84,
      "max": [
        0.9106201529502869,
        0.9098052382469177,
        0.9143779873847961
      ],
      "min": [
        -0.9106201529502869,
        -0.9098052382469177,
        -0.9143779873847961
      ],
      "type": "VEC3"
    },
    {
      "bufferView": 1,
      "byteOffset": 22416,
      "componentType": 5126,
      "count": 84,
      "max": [
        0.9999999403953552,
        1.0
      ],
      "min": [
        0.0,
        0.0
      ],
      "type": "VEC2"
    },
    {
      "bufferView": 0,
      "byteOffset": 15408,
      "componentType": 5125,
      "count": 108,
      "type": "SCALAR"
    },
    {
      "bufferView": 2,
      "byteOffset": 69264,
      "componentType": 5126,
      "count": 32,
      "max": [
        0.9994090795516968,
        1.0,
        1.0
      ],
      "min": [
        -1.0009551048278809,
        -1.1108605861663818,
        -0.9779471755027771
      ],
      "type": "VEC3"
    },
    {
      "bufferView": 2,
      "byteOffset": 69648,
      "componentType": 5126,
      "count": 32,
      "max": [
        0.8127977848052979,
        0.4307997226715088,
        0.8386996984481812
      ],
      "min": [
        -0.8630343079566956,
        -0.9997474551200867,
        -0.8445712327957153
      ],
      "type": "VEC3"
    },
    {
      "bufferView": 1,
      "byteOffset": 23088,
      "componentType": 5126,
      "count": 32,
      "max": [
        0.9900000095367432,
        0.9900000095367432
      ],
      "min": [
        0.01000000536441803,
        0.5099999904632568
      ],
      "type": "VEC2"
    },
    {
      "bufferView": 0,
      "byteOffset": 15840,
      "componentType": 5125,
      "count": 42,
      "type": "SCALAR"
    },
    {
      "bufferView": 2,
      "byteOffset": 70032,
      "componentType": 5126,
      "count": 32,
      "max": [
        0.9871913194656372,
        1.0,
        0.9955281019210815
      ],
      "min": [
        -1.0247596502304077,
        -1.0512971878051758,
        -0.9913968443870544
      ],
      "type": "VEC3"
    },
    {
      "bufferView": 2,
      "byteOffset": 70416,
      "componentType": 5126,
      "count": 32,
      "max": [
        0.810700535774231,
        0.4289035201072693,
        0.8372069001197815
      ],
      "min": [
        -0.8418280482292175,
        -0.9996697306632996,
        -0.8228746056556702
      ],
      "type": "VEC3"
    },
    {
      "bufferView": 1,
      "byteOffset": 23344,
      "componentType": 5126,
      "count": 32,
      "max": [
        0.9900000095367432,
        0.9900000095367432
      ],
      "min": [
        0.01000000536441803,
        0.5099999904632568
      ],
      "type": "VEC2"
    },
    {
      "bufferView": 0,
      "byteOffset": 16008,
      "componentType": 5125,
      "count": 42,
      "type": "SCALAR"
    },
    {
      "bufferView": 2,
      "byteOffset": 70800,
      "componentType": 5126,
      "count": 32,
      "max": [
        0.9911156296730042,
        1.0,
        0.984521210193634
      ],
      "min": [
        -1.0075846910476685,
        -1.140784740447998,
        -1.0
      ],
      "type": "VEC3"
    },
    {
      "bufferView": 2,
      "byteOffset": 71184,
      "componentType": 5126,
      "count": 32,
      "max": [
        0.8228882551193237,
        0.42519092559814453,
        0.8424948453903198
      ],
      "min": [
        -0.8314694762229919,
        -0.9991037249565125,
        -0.8342139720916748
      ],
      "type": "VEC3"
    },
    {
      "bufferView": 1,
      "byteOffset": 23600,
      "componentType": 5126,
      "count": 32,
      "max": [
        0.9900000095367432,
        0.9900000095367432
      ],
      "min": [
        0.01000000536441803,
        0.5099999904632568
      ],
      "type": "VEC2"
    },
    {
      "bufferView": 0,
      "byteOffset": 16176,
      "componentType": 5125,
      "count": 42,
      "type": "SCALAR"
    },
    {
      "bufferView": 2,
      "byteOffset": 71568,
      "componentType": 5126,
      "count": 100,
      "max": [
        0.7370546460151672,
        0.20575059950351715,
        0.8664596676826477
      ],
      "min": [
        -0.9110496044158936,
        -0.20575059950351715,
        -0.8664597272872925
      ],
      "type": "VEC3"
    },
    {
      "bufferView": 2,
      "byteOffset": 72768,
      "componentType": 5126,
      "count": 100,
      "max": [
        0.8319888114929199,
        0.9424276947975159,
        0.9627185463905334
      ],
      "min": [
        -0.9991917610168457,
        -0.9424276947975159,
        -0.9627185463905334
      ],
      "type": "VEC3"
    },
    {
      "bufferView": 0,
      "byteOffset": 16344,
      "componentType": 5125,
      "count": 120,
      "type": "SCALAR"
    },
    {
      "bufferView": 2,
      "byteOffset": 73968,
      "componentType": 5126,
      "count": 32,
      "max": [
        1.0,
        1.0,
        1.0
      ],
      "min": [
        -1.0,
        -1.0,
        -1.0
      ],
      "type": "VEC3"
    },
    {
      "bufferView": 2,
      "byteOffset": 74352,
      "componentType": 5126,
      "count": 32,
      "max": [
        0.8386996984481812,
        0.41939985752105713,
        0.8386996984481812
      ],
      "min": [
        -0.8386996984481812,
        -1.0,
        -0.8386996984481812
      ],
      "type": "VEC3"
    },
    {
      "bufferView": 1,
      "byteOffset": 23856,
      "componentType": 5126,
      "count": 32,
      "max": [
        0.9900000095367432,
        0.9900000095367432
      ],
      "min": [
        0.01000000536441803,
        0.5099999904632568
      ],
      "type": "VEC2"
    },
    {
      "bufferView": 0,
      "byteOffset": 16824,
      "componentType": 5125,
      "count": 42,
      "type": "SCALAR"
    }
  ],
  "asset": {
    "extras": {
      "author": "Yurisaki3D (https://sketchfab.com/Yurisaki3D)",
      "license": "CC-BY-4.0 (http://creativecommons.org/licenses/by/4.0/)",
      "source": "https://sketchfab.com/3d-models/christmas-tree-ee695fff90e345459278f7832b581d38",
      "title": "Christmas Tree"
    },
    "generator": "Sketchfab-16.87.0",
    "version": "2.0"
  },
  "bufferViews": [
    {
      "buffer": 0,
      "byteLength": 16992,
      "name": "floatBufferViews",
      "target": 34963
    },
    {
      "buffer": 0,
      "byteLength": 24112,
      "byteOffset": 16992,
      "byteStride": 8,
      "name": "floatBufferViews",
      "target": 34962
    },
    {
      "buffer": 0,
      "byteLength": 74736,
      "byteOffset": 41104,
      "byteStride": 12,
      "name": "floatBufferViews",
      "target": 34962
    }
  ],
  "buffers": [
    {
      "byteLength": 115840,
      "uri": "scene.bin"
    }
  ],
  "materials": [
    {
      "doubleSided": true,
      "name": "trunk_mat",
      "pbrMetallicRoughness": {
        "baseColorFactor": [
          0.152684,
          0.071477,
          0.0256974,
          1.0
        ],
        "metallicFactor": 0.0,
        "roughnessFactor": 0.9375
      }
    },
    {
      "doubleSided": true,
      "name": "globe_thing",
      "pbrMetallicRoughness": {
        "baseColorFactor": [
          0.0739853,
          0.0739853,
          0.0739853,
          1.0
        ],
        "metallicFactor": 0.0,
        "roughnessFactor": 0.5
      }
    },
    {
      "doubleSided": true,
      "name": "globe_color",
      "pbrMetallicRoughness": {
        "baseColorFactor": [
          0.800016,
          0.0,
          0.00031442,
          1.0
        ],
        "metallicFactor": 0.0,
        "roughnessFactor": 0.0
      }
    },
    {
      "doubleSided": true,
      "name": "globe_color_2",
      "pbrMetallicRoughness": {
        "baseColorFactor": [
          0.800016,
          0.674703,
          0.0,
          1.0
        ],
        "metallicFactor": 0.0,
        "roughnessFactor": 0.0
      }
    },
    {
      "doubleSided": true,
      "name": "globe_color_3",
      "pbrMetallicRoughness": {
        "baseColorFactor": [
          0.0,
          0.163192,
          0.800007,
          1.0
        ],
        "metallicFactor": 0.0,
        "roughnessFactor": 0.0
      }
    },
    {
      "doubleSided": true,
      "name": "leaf_mat",
      "pbrMetallicRoughness": {
        "baseColorFactor": [
          0.0556781,
          0.0956069,
          0.0157946,
          1.0
        ],
        "metallicFactor": 0.0,
        "roughnessFactor": 0.883929
      }
    },
    {
      "doubleSided": true,
      "name": "star_mat",
      "pbrMetallicRoughness": {
        "baseColorFactor": [
          0.837007,
          0.806586,
          0.0273144,
          1.0
        ],
        "metallicFactor": 0.0,
        "roughnessFactor": 0.0
      }
    }
  ],
  "meshes": [
    {
      "name": "Object_0",
      "primitives": [
        {
          "attributes": {
            "NORMAL": 1,
            "POSITION": 0,
            "TEXCOORD_0": 2
          },
          "indices": 3,
          "material": 0,
          "mode": 4
        }
      ]
    },
    {
      "name": "Object_1",
      "primitives": [
        {
          "attributes": {
            "NORMAL": 5,
            "POSITION": 4,
            "TEXCOORD_0": 6
          },
          "indices": 7,
          "material": 1,
          "mode": 4
        }
      ]
    },
    {
      "name": "Object_2",
      "primitives": [
        {
          "attributes": {
            "NORMAL": 9,
            "POSITION": 8,
            "TEXCOORD_0": 10
          },
          "indices": 11,
          "material": 1,
          "mode": 4
        }
      ]
    },
    {
      "name": "Object_3",
      "primitives": [
        {
          "attributes": {
            "NORMAL": 13,
            "POSITION": 12,
            "TEXCOORD_0": 14
          },
          "indices": 15,
          "material": 2,
          "mode": 4
        }
      ]
    },
    {
      "name": "Object_4",
      "primitives": [
        {
          "attributes": {
            "NORMAL": 17,
            "POSITION": 16,
            "TEXCOORD_0": 18
          },
          "indices": 19,
          "material": 1,
          "mode": 4
        }
      ]
    },
    {
      "name": "Object_5",
      "primitives": [
        {
          "attributes": {
            "NORMAL": 21,
            "POSITION": 20,
            "TEXCOORD_0": 22
          },
          "indices": 23,
          "material": 2,
          "mode": 4
        }
      ]
    },
    {
      "name": "Object_6",
      "primitives": [
        {
          "attributes": {
            "NORMAL": 25,
            "POSITION": 24,
            "TEXCOORD_0": 26
          },
          "indices": 27,
          "material": 1,
          "mode": 4
        }
      ]
    },
    {
      "name": "Object_7",
      "primitives": [
        {
          "attributes": {
            "NORMAL": 29,
            "POSITION": 28,
            "TEXCOORD_0": 30
          },
          "indices": 31,
          "material": 2,
          "mode": 4
        }
      ]
    },
    {
      "name": "Object_8",
      "primitives": [
        {
          "attributes": {
            "NORMAL": 33,
            "POSITION": 32,
            "TEXCOORD_0": 34
          },
          "indices": 35,
          "material": 1,
          "mode": 4
        }
      ]
    },
    {
      "name": "Object_9",
      "primitives": [
        {
          "attributes": {
            "NORMAL": 37,
            "POSITION": 36,
            "TEXCOORD_0": 38
          },
          "indices": 39,
          "material": 2,
          "mode": 4
        }
      ]
    },
    {
      "name": "Object_10",
      "primitives": [
        {
          "attributes": {
            "NORMAL": 41,
            "POSITION": 40,
            "TEXCOORD_0": 42
          },
          "indices": 43,
          "material": 1,
          "mode": 4
        }
      ]
    },
    {
      "name": "Object_11",
      "primitives": [
        {
          "attributes": {
            "NORMAL": 45,
            "POSITION": 44,
            "TEXCOORD_0": 46
          },
          "indices": 47,
          "material": 2,
          "mode": 4
        }
      ]
    },
    {
      "name": "Object_12",
      "primitives": [
        {
          "attributes": {
            "NORMAL": 49,
            "POSITION": 48,
            "TEXCOORD_0": 50
          },
          "indices": 51,
          "material": 1,
          "mode": 4
        }
      ]
    },
    {
      "name": "Object_13",
      "primitives": [
        {
          "attributes": {
            "NORMAL": 53,
            "POSITION": 52,
            "TEXCOORD_0": 54
          },
          "indices": 55,
          "material": 2,
          "mode": 4
        }
      ]
    },
    {
      "name": "Object_14",
      "primitives": [
        {
          "attributes": {
            "NORMAL": 57,
            "POSITION": 56,
            "TEXCOORD_0": 58
          },
          "indices": 59,
          "material": 1,
          "mode": 4
        }
      ]
    },
    {
      "name": "Object_15",
      "primitives": [
        {
          "attributes": {
            "NORMAL": 61,
            "POSITION": 60,
            "TEXCOORD_0": 62
          },
          "indices": 63,
          "material": 2,
          "mode": 4
        }
      ]
    },
    {
      "name": "Object_16",
      "primitives": [
        {
          "attributes": {
            "NORMAL": 65,
            "POSITION": 64,
            "TEXCOORD_0": 66
          },
          "indices": 67,
          "material": 1,
          "mode": 4
        }
      ]
    },
    {
      "name": "Object_17",
      "primitives": [
        {
          "attributes": {
            "NORMAL": 69,
            "POSITION": 68,
            "TEXCOORD_0": 70
          },
          "indices": 71,
          "material": 2,
          "mode": 4
        }
      ]
    },
    {
      "name": "Object_18",
      "primitives": [
        {
          "attributes": {
            "NORMAL": 73,
            "POSITION": 72,
            "TEXCOORD_0": 74
          },
          "indices": 75,
          "material": 2,
          "mode": 4
        }
      ]
    },
    {
      "name": "Object_19",
      "primitives": [
        {
          "attributes": {
            "NORMAL": 77,
            "POSITION": 76,
            "TEXCOORD_0": 78
          },
          "indices": 79,
          "material": 1,
          "mode": 4
        }
      ]
    },
    {
      "name": "Object_20",
      "primitives": [
        {
          "attributes": {
            "NORMAL": 81,
            "POSITION": 80,
            "TEXCOORD_0": 82
          },
          "indices": 83,
          "material": 1,
          "mode": 4
        }
      ]
    },
    {
      "name": "Object_21",
      "primitives": [
        {
          "attributes": {
            "NORMAL": 85,
            "POSITION": 84,
            "TEXCOORD_0": 86
          },
          "indices": 87,
          "material": 3,
          "mode": 4
        }
      ]
    },
    {
      "name": "Object_22",
      "primitives": [
        {
          "attributes": {
            "NORMAL": 89,
            "POSITION": 88,
            "TEXCOORD_0": 90
          },
          "indices": 91,
          "material": 1,
          "mode": 4
        }
      ]
    },
    {
      "name": "Object_23",
      "primitives": [
        {
          "attributes": {
            "NORMAL": 93,
            "POSITION": 92,
            "TEXCOORD_0": 94
          },
          "indices": 95,
          "material": 3,
          "mode": 4
        }
      ]
    },
    {
      "name": "Object_24",
      "primitives": [
        {
          "attributes": {
            "NORMAL": 97,
            "POSITION": 96,
            "TEXCOORD_0": 98
          },
          "indices": 99,
          "material": 1,
          "mode": 4
        }
      ]
    },
    {
      "name": "Object_25",
      "primitives": [
        {
          "attributes": {
            "NORMAL": 101,
            "POSITION": 100,
            "TEXCOORD_0": 102
          },
          "indices": 103,
          "material": 3,
          "mode": 4
        }
      ]
    },
    {
      "name": "Object_26",
      "primitives": [
        {
          "attributes": {
            "NORMAL": 105,
            "POSITION": 104,
            "TEXCOORD_0": 106
          },
          "indices": 107,
          "material": 1,
          "mode": 4
        }
      ]
    },
    {
      "name": "Object_27",
      "primitives": [
        {
          "attributes": {
            "NORMAL": 109,
            "POSITION": 108,
            "TEXCOORD_0": 110
          },
          "indices": 111,
          "material": 3,
          "mode": 4
        }
      ]
    },
    {
      "name": "Object_28",
      "primitives": [
        {
          "attributes": {
            "NORMAL": 113,
            "POSITION": 112,
            "TEXCOORD_0": 114
          },
          "indices": 115,
          "material": 1,
          "mode": 4
        }
      ]
    },
    {
      "name": "Object_29",
      "primitives": [
        {
          "attributes": {
            "NORMAL": 117,
            "POSITION": 116,
            "TEXCOORD_0": 118
          },
          "indices": 119,
          "material": 3,
          "mode": 4
        }
      ]
    },
    {
      "name": "Object_30",
      "primitives": [
        {
          "attributes": {
            "NORMAL": 121,
            "POSITION": 120,
            "TEXCOORD_0": 122
          },
          "indices": 123,
          "material": 3,
          "mode": 4
        }
      ]
    },
    {
      "name": "Object_31",
      "primitives": [
        {
          "attributes": {
            "NORMAL": 125,
            "POSITION": 124,
            "TEXCOORD_0": 126
          },
          "indices": 127,
          "material": 1,
          "mode": 4
        }
      ]
    },
    {
      "name": "Object_32",
      "primitives": [
        {
          "attributes": {
            "NORMAL": 129,
            "POSITION": 128,
            "TEXCOORD_0": 130
          },
          "indices": 131,
          "material": 1,
          "mode": 4
        }
      ]
    },
    {
      "name": "Object_33",
      "primitives": [
        {
          "attributes": {
            "NORMAL": 133,
            "POSITION": 132,
            "TEXCOORD_0": 134
          },
          "indices": 135,
          "material": 4,
          "mode": 4
        }
      ]
    },
    {
      "name": "Object_34",
      "primitives": [
        {
          "attributes": {
            "NORMAL": 137,
            "POSITION": 136,
            "TEXCOORD_0": 138
          },
          "indices": 139,
          "material": 1,
          "mode": 4
        }
      ]
    },
    {
      "name": "Object_35",
      "primitives": [
        {
          "attributes": {
            "NORMAL": 141,
            "POSITION": 140,
            "TEXCOORD_0": 142
          },
          "indices": 143,
          "material": 4,
          "mode": 4
        }
      ]
    },
    {
      "name": "Object_36",
      "primitives": [
        {
          "attributes": {
            "NORMAL": 145,
            "POSITION": 144,
            "TEXCOORD_0": 146
          },
          "indices": 147,
          "material": 1,
          "mode": 4
        }
      ]
    },
    {
      "name": "Object_37",
      "primitives": [
        {
          "attributes": {
            "NORMAL": 149,
            "POSITION": 148,
            "TEXCOORD_0": 150
          },
          "indices": 151,
          "material": 4,
          "mode": 4
        }
      ]
    },
    {
      "name": "Object_38",
      "primitives": [
        {
          "attributes": {
            "NORMAL": 153,
            "POSITION": 152,
            "TEXCOORD_0": 154
          },
          "indices": 155,
          "material": 1,
          "mode": 4
        }
      ]
    },
    {
      "name": "Object_39",
      "primitives": [
        {
          "attributes": {
            "NORMAL": 157,
            "POSITION": 156,
            "TEXCOORD_0": 158
          },
          "indices": 159,
          "material": 4,
          "mode": 4
        }
      ]
    },
    {
      "name": "Object_40",
      "primitives": [
        {
          "attributes": {
            "NORMAL": 161,
            "POSITION": 160,
            "TEXCOORD_0": 162
          },
          "indices": 163,
          "material": 1,
          "mode": 4
        }
      ]
    },
    {
      "name": "Object_41",
      "primitives": [
        {
          "attributes": {
            "NORMAL": 165,
            "POSITION": 164,
            "TEXCOORD_0": 166
          },
          "indices": 167,
          "material": 4,
          "mode": 4
        }
      ]
    },
    {
      "name": "Object_42",
      "primitives": [
        {
          "attributes": {
            "NORMAL": 169,
            "POSITION": 168,
            "TEXCOORD_0": 170
          },
          "indices": 171,
          "material": 1,
          "mode": 4
        }
      ]
    },
    {
      "name": "Object_43",
      "primitives": [
        {
          "attributes": {
            "NORMAL": 173,
            "POSITION": 172,
            "TEXCOORD_0": 174
          },
          "indices": 175,
          "material": 4,
          "mode": 4
        }
      ]
    },
    {
      "name": "Object_44",
      "primitives": [
        {
          "attributes": {
            "NORMAL": 177,
            "POSITION": 176,
            "TEXCOORD_0": 178
          },
          "indices": 179,
          "material": 1,
          "mode": 4
        }
      ]
    },
    {
      "name": "Object_45",
      "primitives": [
        {
          "attributes": {
            "NORMAL": 181,
            "POSITION": 180,
            "TEXCOORD_0": 182
          },
          "indices": 183,
          "material": 4,
          "mode": 4
        }
      ]
    },
    {
      "name": "Object_46",
      "primitives": [
        {
          "attributes": {
            "NORMAL": 185,
            "POSITION": 184,
            "TEXCOORD_0": 186
          },
          "indices": 187,
          "material": 1,
          "mode": 4
        }
      ]
    },
    {
      "name": "Object_47",
      "primitives": [
        {
          "attributes": {
            "NORMAL": 189,
            "POSITION": 188,
            "TEXCOORD_0": 190
          },
          "indices": 191,
          "material": 4,
          "mode": 4
        }
      ]
    },
    {
      "name": "Object_48",
      "primitives": [
        {
          "attributes": {
            "NORMAL": 193,
            "POSITION": 192,
            "TEXCOORD_0": 194
          },
          "indices": 195,
          "material": 1,
          "mode": 4
        }
      ]
    },
    {
      "name": "Object_49",
      "primitives": [
        {
          "attributes": {
            "NORMAL": 197,
            "POSITION": 196,
            "TEXCOORD_0": 198
          },
          "indices": 199,
          "material": 4,
          "mode": 4
        }
      ]
    },
    {
      "name": "Object_50",
      "primitives": [
        {
          "attributes": {
            "NORMAL": 201,
            "POSITION": 200,
            "TEXCOORD_0": 202
          },
          "indices": 203,
          "material": 4,
          "mode": 4
        }
      ]
    },
    {
      "name": "Object_51",
      "primitives": [
        {
          "attributes": {
            "NORMAL": 205,
            "POSITION": 204,
            "TEXCOORD_0": 206
          },
          "indices": 207,
          "material": 5,
          "mode": 4
        }
      ]
    },
    {
      "name": "Object_52",
      "primitives": [
        {
          "attributes": {
            "NORMAL": 209,
            "POSITION": 208,
            "TEXCOORD_0": 210
          },
          "indices": 211,
          "material": 5,
          "mode": 4
        }
      ]
    },
    {
      "name": "Object_53",
      "primitives": [
        {
          "attributes": {
            "NORMAL": 213,
            "POSITION": 212,
            "TEXCOORD_0": 214
          },
          "indices": 215,
          "material": 5,
          "mode": 4
        }
      ]
    },
    {
      "name": "Object_54",
      "primitives": [
        {
          "attributes": {
            "NORMAL": 217,
            "POSITION": 216
          },
          "indices": 218,
          "material": 6,
          "mode": 4
        }
      ]
    },
    {
      "name": "Object_55",
      "primitives": [
        {
          "attributes": {
            "NORMAL": 220,
            "POSITION": 219,
            "TEXCOORD_0": 221
          },
          "indices": 222,
          "material": 6,
          "mode": 4
        }
      ]
    }
  ],
  "nodes": [
    {
      "children": [
        1
      ],
      "matrix": [
        1.0,
        0.0,
        0.0,
        0.0,
        0.0,
        2.220446049250313e-16,
        -1.0,
        0.0,
        0.0,
        1.0,
        2.220446049250313e-16,
        0.0,
        0.0,
        0.0,
        0.0,
        1.0
      ],
      "name": "Sketchfab_model"
    },
    {
      "children": [
        2
      ],
      "name": "root"
    },
    {
      "children": [
        3
      ],
      "matrix": [
        1.0,
        0.0,
        0.0,
        0.0,
        0.0,
        2.220446049250313e-16,
        1.0,
        0.0,
        0.0,
        -1.0,
        2.220446049250313e-16,
        0.0,
        0.0,
        0.0,
        0.0,
        1.0
      ],
      "name": "GLTF_SceneRootNode"
    },
    {
      "children": [
        4,
        5,
        41,
        65,
        105,
        107,
        109,
        111
      ],
      "matrix": [
        0.9531683325767517,
        0.0,
        0.0,
        0.0,
        0.0,
        0.9531683325767517,
        0.0,
        0.0,
        0.0,
        0.0,
        0.9531683325767517,
        0.0,
        0.0,
        0.8048995137214661,
        0.0,
        1.0
      ],
      "name": "tree base_55"
    },
    {
      "mesh": 0,
      "name": "Object_4"
    },
    {
      "children": [
        6,
        7,
        11,
        15,
        19,
        23,
        27,
        31,
        35,
        39
      ],
      "matrix": [
        1.0491324663162231,
        0.0,
        0.0,
        0.0,
        0.0,
        1.0491324663162231,
        0.0,
        0.0,
        0.0,
        0.0,
        1.0491324663162231,
        0.0,
        0.0,
        -0.8444461822509766,
        0.0,
        1.0
      ],
      "name": "globe 1_17"
    },
    {
      "mesh": 1,
      "name": "Object_6"
    },
    {
      "children": [
        8,
        9
      ],
      "name": "globe 1.001_1"
    },
    {
      "mesh": 2,
      "name": "Object_8"
    },
    {
      "children": [
        10
      ],
      "matrix": [
        0.040476832631534516,
        -0.0010958637226977767,
        -0.02933300491470017,
        0.0,
        -0.0011141376971625543,
        0.04962178355431784,
        -0.003391247430617589,
        0.0,
        0.029332098953284216,
        0.0034160383842736877,
        0.04034796131404539,
        0.0,
        -0.24696145951747894,
        1.178850769996643,
        0.3860255777835846,
        1.0
      ],
      "name": "glorb.022_0"
    },
    {
      "mesh": 3,
      "name": "Object_10"
    },
    {
      "children": [
        12,
        13
      ],
      "name": "globe 1.002_3"
    },
    {
      "mesh": 4,
      "name": "Object_12"
    },
    {
      "children": [
        14
      ],
      "matrix": [
        0.04763493378005631,
        0.0018498422906214733,
        0.015082800444422239,
        0.0,
        -0.0013788556194092806,
        0.04970040008735785,
        -0.0017408044292790414,
        0.0,
        -0.015132494385718216,
        0.0012487660949112578,
        0.04763872268316177,
        0.0,
        0.507267951965332,
        0.7113450765609741,
        -0.2921003997325897,
        1.0
      ],
      "name": "glorb.023_2"
    },
    {
      "mesh": 5,
      "name": "Object_14"
    },
    {
      "children": [
        16,
        17
      ],
      "name": "globe 1.003_5"
    },
    {
      "mesh": 6,
      "name": "Object_16"
    },
    {
      "children": [
        18
      ],
      "matrix": [
        0.04764284042733134,
        -0.004346182546559219,
        0.014535173643674114,
        0.0,
        0.004278852838276388,
        0.04955930455122883,
        0.0007937353730307104,
        0.0,
        -0.014548794823889676,
        0.0004900110967764693,
        0.04783400631636642,
        0.0,
        -0.04290524125099182,
        0.31656619906425476,
        -0.6719533205032349,
        1.0
      ],
      "name": "glorb.024_4"
    },
    {
      "mesh": 7,
      "name": "Object_18"
    },
    {
      "children": [
        20,
        21
      ],
      "name": "globe base.001_7"
    },
    {
      "mesh": 8,
      "name": "Object_20"
    },
    {
      "children": [
        22
      ],
      "matrix": [
        0.04812107441543474,
        0.0,
        -0.013578006908600332,
        0.0,
        0.0,
        0.04974787309765816,
        0.0,
        0.0,
        0.013578006908600332,
        0.0,
        0.04812107441543474,
        0.0,
        0.2746414244174957,
        1.1528112888336182,
        -0.338973730802536,
        1.0
      ],
      "name": "glorb.001_6"
    },
    {
      "mesh": 9,
      "name": "Object_22"
    },
    {
      "children": [
        24,
        25
      ],
      "name": "globe base.002_9"
    },
    {
      "mesh": 10,
      "name": "Object_24"
    },
    {
      "children": [
        26
      ],
      "matrix": [
        0.04121482508817586,
        0.0,
        -0.02830790565193514,
        0.0,
        0.0,
        0.052138060331344604,
        0.0,
        0.0,
        0.02830790565193514,
        0.0,
        0.04121482508817586,
        0.0,
        -0.2776155471801758,
        0.7050574421882629,
        -0.49603745341300964,
        1.0
      ],
      "name": "glorb.002_8"
    },
    {
      "mesh": 11,
      "name": "Object_26"
    },
    {
      "children": [
        28,
        29
      ],
      "name": "globe base.003_11"
    },
    {
      "mesh": 12,
      "name": "Object_28"
    },
    {
      "children": [
        30
      ],
      "matrix": [
        0.04707351981861494,
        0.0,
        0.016854752706737985,
        0.0,
        -0.0,
        0.052138060331344604,
        0.0,
        0.0,
        -0.016854752706737985,
        0.0,
        0.04707351981861494,
        0.0,
        -0.14552292227745056,
        0.7579534649848938,
        0.5590712428092957,
        1.0
      ],
      "name": "glorb.003_10"
    },
    {
      "mesh": 13,
      "name": "Object_30"
    },
    {
      "children": [
        32,
        33
      ],
      "name": "globe base.004_13"
    },
    {
      "mesh": 14,
      "name": "Object_32"
    },
    {
      "children": [
        34
      ],
      "matrix": [
        0.04999999701976776,
        0.0,
        0.0,
        0.0,
        0.0,
        0.04974787309765816,
        0.0,
        0.0,
        0.0,
        0.0,
        0.04999999701976776,
        0.0,
        0.4806973338127136,
        0.24142731726169586,
        0.448605477809906,
        1.0
      ],
      "name": "glorb.004_12"
    },
    {
      "mesh": 15,
      "name": "Object_34"
    },
    {
      "children": [
        36,
        37
      ],
      "name": "globe base.005_15"
    },
    {
      "mesh": 16,
      "name": "Object_36"
    },
    {
      "children": [
        38
      ],
      "matrix": [
        0.027281943099164544,
        0.0,
        0.04190101323574097,
        0.0,
        -0.0,
        0.04974787309765816,
        0.0,
        0.0,
        -0.04190101323574097,
        0.0,
        0.027281943099164544,
        0.0,
        -0.6894332766532898,
        0.270397812128067,
        -0.10476081818342209,
        1.0
      ],
      "name": "glorb.005_14"
    },
    {
      "mesh": 17,
      "name": "Object_38"
    },
    {
      "children": [
        40
      ],
      "name": "glorb_16"
    },
    {
      "mesh": 18,
      "name": "Object_40"
    },
    {
      "children": [
        42,
        43,
        47,
        51,
        55,
        59,
        63
      ],
      "matrix": [
        1.0491324663162231,
        0.0,
        0.0,
        0.0,
        0.0,
        1.0491324663162231,
        0.0,
        0.0,
        0.0,
        0.0,
        1.0491324663162231,
        0.0,
        0.0,
        -0.8444461822509766,
        0.0,
        1.0
      ],
      "name": "globe 2_29"
    },
    {
      "mesh": 19,
      "name": "Object_42"
    },
    {
      "children": [
        44,
        45
      ],
      "name": "globe 2.001_19"
    },
    {
      "mesh": 20,
      "name": "Object_44"
    },
    {
      "children": [
        46
      ],
      "matrix": [
        0.029598274687265093,
        -0.0024627441478387406,
        0.04022283839780919,
        0.0,
        0.0026458646145538353,
        0.04966541319411455,
        0.001093910320593286,
        0.0,
        -0.04021032328308494,
        0.001488432119721189,
        0.029680198336122433,
        0.0,
        -0.4929233491420746,
        0.2563619613647461,
        0.4666154682636261,
        1.0
      ],
      "name": "glorb.007_18"
    },
    {
      "mesh": 21,
      "name": "Object_46"
    },
    {
      "children": [
        48,
        49
      ],
      "name": "globe 2.002_21"
    },
    {
      "mesh": 22,
      "name": "Object_48"
    },
    {
      "children": [
        50
      ],
      "matrix": [
        0.048068703219936434,
        0.001226185893030298,
        0.013707541207096975,
        0.0,
        -0.0006880834080814953,
        0.049701561850851055,
        -0.0020330470978286094,
        0.0,
        -0.013744888064771102,
        0.001774829366049264,
        0.04804090423631906,
        0.0,
        0.5693191885948181,
        0.7641157507896423,
        0.15405318140983582,
        1.0
      ],
      "name": "glorb.008_20"
    },
    {
      "mesh": 23,
      "name": "Object_50"
    },
    {
      "children": [
        52,
        53
      ],
      "name": "globe 2.003_23"
    },
    {
      "mesh": 24,
      "name": "Object_52"
    },
    {
      "children": [
        54
      ],
      "matrix": [
        0.041137171033730074,
        0.0,
        0.028420667681014762,
        0.0,
        -0.0,
        0.04974787309765816,
        0.0,
        0.0,
        -0.028420667681014762,
        0.0,
        0.041137171033730074,
        0.0,
        -0.3735121786594391,
        1.1221139430999756,
        -0.2370554506778717,
        1.0
      ],
      "name": "glorb.009_22"
    },
    {
      "mesh": 25,
      "name": "Object_54"
    },
    {
      "children": [
        56,
        57
      ],
      "name": "globe 2.004_25"
    },
    {
      "mesh": 26,
      "name": "Object_56"
    },
    {
      "children": [
        58
      ],
      "matrix": [
        0.041083184595566,
        -0.0002156916089038203,
        0.028497828692383396,
        0.0,
        -2.1352552088795737e-06,
        0.04974642853592993,
        0.0003795941932562009,
        0.0,
        -0.02849864485278089,
        -0.00031470264561893194,
        0.041081979301925545,
        0.0,
        -0.580417811870575,
        0.7105262875556946,
        -0.13324671983718872,
        1.0
      ],
      "name": "glorb.020_24"
    },
    {
      "mesh": 27,
      "name": "Object_58"
    },
    {
      "children": [
        60,
        61
      ],
      "name": "globe 2.014_27"
    },
    {
      "mesh": 28,
      "name": "Object_60"
    },
    {
      "children": [
        62
      ],
      "matrix": [
        0.04113066372581254,
        0.002298390309955569,
        0.028337013789248966,
        0.0,
        7.76609494379895e-05,
        0.04957576815349749,
        -0.00413377049535848,
        0.0,
        -0.028429961933772677,
        0.0034619649042986257,
        0.040984779344915935,
        0.0,
        0.09980777651071548,
        1.2048259973526,
        0.4454056918621063,
        1.0
      ],
      "name": "glorb.021_26"
    },
    {
      "mesh": 29,
      "name": "Object_62"
    },
    {
      "children": [
        64
      ],
      "name": "glorb.006_28"
    },
    {
      "mesh": 30,
      "name": "Object_64"
    },
    {
      "children": [
        66,
        67,
        71,
        75,
        79,
        83,
        87,
        91,
        95,
        99,
        103
      ],
      "matrix": [
        1.0491324663162231,
        0.0,
        0.0,
        0.0,
        0.0,
        1.0491324663162231,
        0.0,
        0.0,
        0.0,
        0.0,
        1.0491324663162231,
        0.0,
        0.0,
        -0.8444461822509766,
        0.0,
        1.0
      ],
      "name": "globe 3_49"
    },
    {
      "mesh": 31,
      "name": "Object_66"
    },
    {
      "children": [
        68,
        69
      ],
      "name": "globe 2.005_31"
    },
    {
      "mesh": 32,
      "name": "Object_68"
    },
    {
      "children": [
        70
      ],
      "matrix": [
        0.04049484231645397,
        0.00024061543354333612,
        0.02932762438308726,
        0.0,
        -0.0006581149990679366,
        0.04974098949824781,
        0.0005006137956683826,
        0.0,
        -0.029321153781734242,
        -0.0007954759788717065,
        0.040492434273339706,
        0.0,
        0.1616450399160385,
        0.7432872653007507,
        -0.5570317506790161,
        1.0
      ],
      "name": "glorb.011_30"
    },
    {
      "mesh": 33,
      "name": "Object_70"
    },
    {
      "children": [
        72,
        73
      ],
      "name": "globe 2.006_33"
    },
    {
      "mesh": 34,
      "name": "Object_72"
    },
    {
      "children": [
        74
      ],
      "matrix": [
        0.04049484231645397,
        0.00024061543354333612,
        0.02932762438308726,
        0.0,
        -0.0006581149990679366,
        0.04974098949824781,
        0.0005006137956683826,
        0.0,
        -0.029321153781734242,
        -0.0007954759788717065,
        0.040492434273339706,
        0.0,
        0.2536376714706421,
        0.7263770699501038,
        0.5490872859954834,
        1.0
      ],
      "name": "glorb.012_32"
    },
    {
      "mesh": 35,
      "name": "Object_74"
    },
    {
      "children": [
        76,
        77
      ],
      "name": "globe 2.007_35"
    },
    {
      "mesh": 36,
      "name": "Object_76"
    },
    {
      "children": [
        78
      ],
      "matrix": [
        0.04824143478439734,
        0.00024061543488936295,
        0.01314179948557899,
        0.0,
        -0.0004389854989658349,
        0.04974098949897809,
        0.0007007290371183809,
        0.0,
        -0.013136595773827302,
        -0.0007954761264075491,
        0.0482368973017587,
        0.0,
        -0.4606517553329468,
        0.3432225286960602,
        -0.49549201130867004,
        1.0
      ],
      "name": "glorb.013_34"
    },
    {
      "mesh": 37,
      "name": "Object_78"
    },
    {
      "children": [
        80,
        81
      ],
      "name": "globe 2.008_37"
    },
    {
      "mesh": 38,
      "name": "Object_80"
    },
    {
      "children": [
        82
      ],
      "matrix": [
        0.04824143478439734,
        0.00024061543488936295,
        0.01314179948557899,
        0.0,
        -0.0004389854989658349,
        0.04974098949897809,
        0.0007007290371183809,
        0.0,
        -0.013136595773827302,
        -0.0007954761264075491,
        0.0482368973017587,
        0.0,
        0.6838344931602478,
        0.3102896511554718,
        -0.012209572829306126,
        1.0
      ],
      "name": "glorb.014_36"
    },
    {
      "mesh": 39,
      "name": "Object_82"
    },
    {
      "children": [
        84,
        85
      ],
      "name": "globe 2.009_39"
    },
    {
      "mesh": 40,
      "name": "Object_84"
    },
    {
      "children": [
        86
      ],
      "matrix": [
        0.038052704703179674,
        0.0001509992295433221,
        0.03243407064355462,
        0.0,
        0.0019391467594138529,
        0.04964682944171867,
        -0.0025062044447148302,
        0.0,
        -0.032375812492851284,
        0.0031812885666291126,
        0.03796954362366469,
        0.0,
        -0.4954207241535187,
        0.7430100440979004,
        0.3087734580039978,
        1.0
      ],
      "name": "glorb.015_38"
    },
    {
      "mesh": 41,
      "name": "Object_86"
    },
    {
      "children": [
        88,
        89
      ],
      "name": "globe 2.010_41"
    },
    {
      "mesh": 42,
      "name": "Object_88"
    },
    {
      "children": [
        90
      ],
      "matrix": [
        0.04824143478439734,
        0.00024061543488936295,
        0.01314179948557899,
        0.0,
        -0.0004389854989658349,
        0.04974098949897809,
        0.0007007290371183809,
        0.0,
        -0.013136595773827302,
        -0.0007954761264075491,
        0.0482368973017587,
        0.0,
        0.40215203166007996,
        1.1909031867980957,
        -0.06301817297935486,
        1.0
      ],
      "name": "glorb.016_40"
    },
    {
      "mesh": 43,
      "name": "Object_90"
    },
    {
      "children": [
        92,
        93
      ],
      "name": "globe 2.011_43"
    },
    {
      "mesh": 44,
      "name": "Object_92"
    },
    {
      "children": [
        94
      ],
      "matrix": [
        0.04824143478439734,
        0.00024061543488936295,
        0.01314179948557899,
        0.0,
        -0.0004389854989658349,
        0.04974098949897809,
        0.0007007290371183809,
        0.0,
        -0.013136595773827302,
        -0.0007954761264075491,
        0.0482368973017587,
        0.0,
        -0.4337700605392456,
        1.1809253692626953,
        0.07636485993862152,
        1.0
      ],
      "name": "glorb.017_42"
    },
    {
      "mesh": 45,
      "name": "Object_94"
    },
    {
      "children": [
        96,
        97
      ],
      "name": "globe 2.012_45"
    },
    {
      "mesh": 46,
      "name": "Object_96"
    },
    {
      "children": [
        98
      ],
      "matrix": [
        0.04824143478439734,
        0.00024061543488936295,
        0.01314179948557899,
        0.0,
        -0.0004389854989658349,
        0.04974098949897809,
        0.0007007290371183809,
        0.0,
        -0.013136595773827302,
        -0.0007954761264075491,
        0.0482368973017587,
        0.0,
        -0.002990426728501916,
        0.2503921389579773,
        0.651198148727417,
        1.0
      ],
      "name": "glorb.018_44"
    },
    {
      "mesh": 47,
      "name": "Object_98"
    },
    {
      "children": [
        100,
        101
      ],
      "name": "globe 2.013_47"
    },
    {
      "mesh": 48,
      "name": "Object_100"
    },
    {
      "children": [
        102
      ],
      "matrix": [
        0.03350258851823322,
        -0.00257721694789337,
        0.03702612884650817,
        0.0,
        -0.0004331264750585184,
        0.04959723261436414,
        0.00384414171739724,
        0.0,
        -0.03711316430728409,
        -0.0029111941366253362,
        0.033378706660163134,
        0.0,
        -0.07020101696252823,
        1.1638128757476807,
        -0.4153423309326172,
        1.0
      ],
      "name": "glorb.019_46"
    },
    {
      "mesh": 49,
      "name": "Object_102"
    },
    {
      "children": [
        104
      ],
      "name": "glorb.010_48"
    },
    {
      "mesh": 50,
      "name": "Object_104"
    },
    {
      "children": [
        106
      ],
      "matrix": [
        0.7546314001083374,
        0.0,
        0.0,
        0.0,
        0.0,
        0.4635038096143098,
        0.017364169155198006,
        0.0,
        0.0,
        -0.02825081353736816,
        0.7541022885827987,
        0.0,
        0.0,
        -0.028567850589752197,
        0.0,
        1.0
      ],
      "name": "leaf bot_50"
    },
    {
      "mesh": 51,
      "name": "Object_106"
    },
    {
      "children": [
        108
      ],
      "matrix": [
        0.6254894411464024,
        0.003341058061234184,
        0.1747522328910511,
        0.0,
        -2.8474787271384093e-10,
        0.39910759536128343,
        -0.007630468856476072,
        0.0,
        -0.17478415249070633,
        0.011956437842734967,
        0.6253750976547195,
        0.0,
        0.0,
        0.38046157360076904,
        0.0,
        1.0
      ],
      "name": "leaf mid_51"
    },
    {
      "mesh": 52,
      "name": "Object_108"
    },
    {
      "children": [
        110
      ],
      "matrix": [
        0.48440063804289335,
        -0.003168362794013344,
        -0.08563084877522383,
        0.0,
        5.0672630958099e-10,
        0.3750430894050335,
        -0.013876685121775784,
        0.0,
        0.08568944902641423,
        0.017910686039717884,
        0.4840694308599326,
        0.0,
        0.0,
        0.8289819955825806,
        0.0,
        1.0
      ],
      "name": "leaf top_52"
    },
    {
      "mesh": 53,
      "name": "Object_110"
    },
    {
      "children": [
        112,
        113
      ],
      "matrix": [
        0.00011558326344417181,
        -0.19092466736145283,
        0.0026788247520107187,
        0.0,
        0.18735186073767668,
        -0.0004037343475522273,
        -0.03685854605124468,
        0.0,
        0.03686056731444317,
        0.0026507471014232302,
        0.1873330995464653,
        0.0,
        0.0,
        1.312652349472046,
        -0.010924496687948704,
        1.0
      ],
      "name": "Star_54"
    },
    {
      "mesh": 54,
      "name": "Object_112"
    },
    {
      "children": [
        114
      ],
      "matrix": [
        0.0,
        0.29443368315696716,
        0.0,
        0.0,
        -0.3840620517730713,
        0.0,
        0.0,
        0.0,
        0.0,
        0.0,
        0.29443371295928955,
        0.0,
        0.5957531929016113,
        0.0,
        -0.004950396250933409,
        1.0
      ],
      "name": "Cone_53"
    },
    {
      "mesh": 55,
      "name": "Object_114"
    }
  ],
  "scene": 0,
  "scenes": [
    {
      "name": "Sketchfab_Scene",
      "nodes": [
        0
      ]
    }
  ]
}
